<svg width="1280" height="720" xmlns="http://www.w3.org/2000/svg" xmlns:xlink="http://www.w3.org/1999/xlink" overflow="hidden"><defs><clipPath id="clip0"><rect x="0" y="0" width="1280" height="720"/></clipPath><linearGradient x1="640" y1="0" x2="640" y2="720" gradientUnits="userSpaceOnUse" spreadMethod="reflect" id="fill1"><stop offset="0" stop-color="#0A304A"/><stop offset="0.56" stop-color="#0A304A"/><stop offset="1" stop-color="#4AA8E7"/></linearGradient><linearGradient x1="639.123" y1="680.281" x2="638.877" y2="722.719" gradientUnits="userSpaceOnUse" spreadMethod="reflect" id="fill2"><stop offset="0" stop-color="#167BF3"/><stop offset="0.00591716" stop-color="#157AF2"/><stop offset="0.0118343" stop-color="#157AF2"/><stop offset="0.0177515" stop-color="#157AF2"/><stop offset="0.0236686" stop-color="#157AF2"/><stop offset="0.0295858" stop-color="#157AF2"/><stop offset="0.035503" stop-color="#157AF2"/><stop offset="0.0414201" stop-color="#157AF2"/><stop offset="0.0473373" stop-color="#157AF2"/><stop offset="0.0532544" stop-color="#157AF2"/><stop offset="0.0591716" stop-color="#157AF2"/><stop offset="0.0650888" stop-color="#157AF1"/><stop offset="0.0710059" stop-color="#157AF1"/><stop offset="0.0769231" stop-color="#157AF1"/><stop offset="0.0828402" stop-color="#157AF1"/><stop offset="0.0887574" stop-color="#157AF1"/><stop offset="0.0946746" stop-color="#1579F0"/><stop offset="0.100592" stop-color="#1579F0"/><stop offset="0.106509" stop-color="#1579F0"/><stop offset="0.112426" stop-color="#1579F0"/><stop offset="0.118343" stop-color="#1579EF"/><stop offset="0.12426" stop-color="#1579EF"/><stop offset="0.130178" stop-color="#1579EF"/><stop offset="0.136095" stop-color="#1578EE"/><stop offset="0.142012" stop-color="#1578EE"/><stop offset="0.147929" stop-color="#1578EE"/><stop offset="0.153846" stop-color="#1578ED"/><stop offset="0.159763" stop-color="#1578ED"/><stop offset="0.16568" stop-color="#1577ED"/><stop offset="0.171598" stop-color="#1577EC"/><stop offset="0.177515" stop-color="#1577EC"/><stop offset="0.183432" stop-color="#1577EB"/><stop offset="0.189349" stop-color="#1577EB"/><stop offset="0.195266" stop-color="#1576EB"/><stop offset="0.201183" stop-color="#1576EA"/><stop offset="0.207101" stop-color="#1576EA"/><stop offset="0.213018" stop-color="#1576E9"/><stop offset="0.218935" stop-color="#1475E9"/><stop offset="0.224852" stop-color="#1475E8"/><stop offset="0.230769" stop-color="#1475E8"/><stop offset="0.236686" stop-color="#1475E7"/><stop offset="0.242604" stop-color="#1474E7"/><stop offset="0.248521" stop-color="#1474E6"/><stop offset="0.254438" stop-color="#1474E5"/><stop offset="0.260355" stop-color="#1473E5"/><stop offset="0.266272" stop-color="#1473E4"/><stop offset="0.272189" stop-color="#1473E4"/><stop offset="0.278107" stop-color="#1473E3"/><stop offset="0.284024" stop-color="#1472E2"/><stop offset="0.289941" stop-color="#1472E2"/><stop offset="0.295858" stop-color="#1472E1"/><stop offset="0.301775" stop-color="#1471E1"/><stop offset="0.307692" stop-color="#1471E0"/><stop offset="0.313609" stop-color="#1370DF"/><stop offset="0.319527" stop-color="#1370DE"/><stop offset="0.325444" stop-color="#1370DE"/><stop offset="0.331361" stop-color="#136FDD"/><stop offset="0.337278" stop-color="#136FDC"/><stop offset="0.343195" stop-color="#136FDC"/><stop offset="0.349112" stop-color="#136EDB"/><stop offset="0.35503" stop-color="#136EDA"/><stop offset="0.360947" stop-color="#136DD9"/><stop offset="0.366864" stop-color="#136DD9"/><stop offset="0.372781" stop-color="#136DD8"/><stop offset="0.378698" stop-color="#136CD7"/><stop offset="0.384615" stop-color="#126CD6"/><stop offset="0.390533" stop-color="#126BD5"/><stop offset="0.39645" stop-color="#126BD5"/><stop offset="0.402367" stop-color="#126BD4"/><stop offset="0.408284" stop-color="#126AD3"/><stop offset="0.414201" stop-color="#126AD2"/><stop offset="0.420118" stop-color="#1269D1"/><stop offset="0.426035" stop-color="#1269D0"/><stop offset="0.431953" stop-color="#1268CF"/><stop offset="0.43787" stop-color="#1268CE"/><stop offset="0.443787" stop-color="#1267CD"/><stop offset="0.449704" stop-color="#1167CD"/><stop offset="0.455621" stop-color="#1166CC"/><stop offset="0.461538" stop-color="#1166CB"/><stop offset="0.467456" stop-color="#1165CA"/><stop offset="0.473373" stop-color="#1165C9"/><stop offset="0.47929" stop-color="#1164C8"/><stop offset="0.485207" stop-color="#1164C7"/><stop offset="0.491124" stop-color="#1163C6"/><stop offset="0.497041" stop-color="#1163C5"/><stop offset="0.502959" stop-color="#1162C4"/><stop offset="0.508876" stop-color="#1062C3"/><stop offset="0.514793" stop-color="#1061C2"/><stop offset="0.52071" stop-color="#1061C0"/><stop offset="0.526627" stop-color="#1060BF"/><stop offset="0.532544" stop-color="#105FBE"/><stop offset="0.538462" stop-color="#105FBD"/><stop offset="0.544379" stop-color="#105EBC"/><stop offset="0.550296" stop-color="#105EBB"/><stop offset="0.556213" stop-color="#105DBA"/><stop offset="0.56213" stop-color="#0F5DB9"/><stop offset="0.568047" stop-color="#0F5CB8"/><stop offset="0.573964" stop-color="#0F5BB6"/><stop offset="0.579882" stop-color="#0F5BB5"/><stop offset="0.585799" stop-color="#0F5AB4"/><stop offset="0.591716" stop-color="#0F5AB3"/><stop offset="0.597633" stop-color="#0F59B2"/><stop offset="0.60355" stop-color="#0F58B1"/><stop offset="0.609467" stop-color="#0E58AF"/><stop offset="0.615385" stop-color="#0E57AE"/><stop offset="0.621302" stop-color="#0E56AD"/><stop offset="0.627219" stop-color="#0E56AC"/><stop offset="0.633136" stop-color="#0E55AA"/><stop offset="0.639053" stop-color="#0E54A9"/><stop offset="0.64497" stop-color="#0E54A8"/><stop offset="0.650888" stop-color="#0D53A7"/><stop offset="0.656805" stop-color="#0D52A5"/><stop offset="0.662722" stop-color="#0D52A4"/><stop offset="0.668639" stop-color="#0D51A3"/><stop offset="0.674556" stop-color="#0D50A1"/><stop offset="0.680473" stop-color="#0D50A0"/><stop offset="0.686391" stop-color="#0D4F9F"/><stop offset="0.692308" stop-color="#0C4E9D"/><stop offset="0.698225" stop-color="#0C4E9C"/><stop offset="0.704142" stop-color="#0C4D9A"/><stop offset="0.710059" stop-color="#0C4C99"/><stop offset="0.715976" stop-color="#0C4B98"/><stop offset="0.721893" stop-color="#0C4B96"/><stop offset="0.727811" stop-color="#0C4A95"/><stop offset="0.733728" stop-color="#0B4993"/><stop offset="0.739645" stop-color="#0B4992"/><stop offset="0.745562" stop-color="#0B4890"/><stop offset="0.751479" stop-color="#0B478F"/><stop offset="0.757396" stop-color="#0B468E"/><stop offset="0.763314" stop-color="#0B458C"/><stop offset="0.769231" stop-color="#0A458B"/><stop offset="0.775148" stop-color="#0A4489"/><stop offset="0.781065" stop-color="#0A4388"/><stop offset="0.786982" stop-color="#0A4286"/><stop offset="0.792899" stop-color="#0A4284"/><stop offset="0.798817" stop-color="#0A4183"/><stop offset="0.804734" stop-color="#0A4081"/><stop offset="0.810651" stop-color="#093F80"/><stop offset="0.816568" stop-color="#093E7E"/><stop offset="0.822485" stop-color="#093D7D"/><stop offset="0.828402" stop-color="#093D7B"/><stop offset="0.83432" stop-color="#093C79"/><stop offset="0.840237" stop-color="#093B78"/><stop offset="0.846154" stop-color="#083A76"/><stop offset="0.852071" stop-color="#083975"/><stop offset="0.857988" stop-color="#083873"/><stop offset="0.863905" stop-color="#083871"/><stop offset="0.869823" stop-color="#083770"/><stop offset="0.87574" stop-color="#07366E"/><stop offset="0.881657" stop-color="#07356C"/><stop offset="0.887574" stop-color="#07346B"/><stop offset="0.893491" stop-color="#073369"/><stop offset="0.899408" stop-color="#073267"/><stop offset="0.905325" stop-color="#073165"/><stop offset="0.911243" stop-color="#063164"/><stop offset="0.91716" stop-color="#063062"/><stop offset="0.923077" stop-color="#062F60"/><stop offset="0.928994" stop-color="#062E5E"/><stop offset="0.934911" stop-color="#062D5D"/><stop offset="0.940828" stop-color="#052C5B"/><stop offset="0.946746" stop-color="#052B59"/><stop offset="0.952663" stop-color="#052A57"/><stop offset="0.95858" stop-color="#052955"/><stop offset="0.964497" stop-color="#052854"/><stop offset="0.970414" stop-color="#042752"/><stop offset="0.976331" stop-color="#042650"/><stop offset="0.982249" stop-color="#04254E"/><stop offset="0.988166" stop-color="#04244C"/><stop offset="0.994083" stop-color="#04234A"/><stop offset="1" stop-color="#042349"/></linearGradient></defs><g clip-path="url(#clip0)"><rect x="0" y="0" width="1280" height="720" fill="url(#fill1)"/><rect x="0" y="0" width="57" height="59" stroke="#011524" stroke-width="1.66667" stroke-linecap="round" stroke-linejoin="round" stroke-miterlimit="10" fill="#22C5ED"/><rect x="58" y="54" width="1223" height="5" stroke="#011524" stroke-width="1.66667" stroke-linecap="round" stroke-linejoin="round" stroke-miterlimit="10" fill="#22C5ED"/><rect x="-1" y="684" width="1280" height="35" stroke="#011524" stroke-width="1.66667" stroke-linecap="round" stroke-linejoin="round" stroke-miterlimit="10" fill="url(#fill2)"/><text fill="#FFFFFF" font-family="Segoe UI Semibold,Segoe UI Semibold_MSFontService,sans-serif" font-weight="600" font-size="24" transform="translate(80.1882 38)">Toy Company Sales</text><text fill="#FFFFFF" font-family="Abadi,Abadi_MSFontService,sans-serif" font-weight="400" font-size="24" transform="translate(289.242 38)">:</text><text fill="#FFFFFF" font-family="Segoe UI Black,Segoe UI Black_MSFontService,sans-serif" font-weight="900" font-size="24" transform="translate(301.908 38)">2023 Performance Report</text><g><g><g><path d="M43.6919 44.8075 40.0972 42.7529C41.1394 40.1877 41.3782 37.3665 40.7818 34.6626 41.6423 34.4106 42.4412 34.1457 43.1222 33.8747 45.4943 32.951 46.6686 30.2791 45.7448 27.9069 44.8211 25.5347 42.1492 24.3605 39.7771 25.2842 39.7505 25.2946 39.7241 25.3052 39.6977 25.316 38.4117 25.7777 37.098 26.1585 35.7644 26.456 38.6594 24.5712 40.43 21.3723 40.4899 17.9182 40.4899 17.7007 40.4678 17.488 40.4536 17.2729 43.4928 15.7661 44.7351 12.0809 43.2282 9.0417 41.7215 6.00251 38.0362 4.76027 34.997 6.26708 34.1952 6.66463 33.4899 7.23261 32.9305 7.93127 30.0696 6.90615 26.9415 6.90615 24.0805 7.93127 21.9614 5.28196 18.0959 4.85213 15.4466 6.97122 12.7973 9.09031 12.3674 12.9559 14.4865 15.6052 15.0468 16.3056 15.7537 16.8749 16.5574 17.2729 16.5433 17.4874 16.5212 17.7031 16.5212 17.9182 16.5813 21.3728 18.3523 24.5723 21.2479 26.4573 19.9133 26.1592 18.5986 25.778 17.3115 25.316 14.9481 24.3698 12.2652 25.5187 11.319 27.8822 10.3729 30.2456 11.5218 32.9285 13.8852 33.8747 14.5612 34.1457 15.3682 34.4106 16.2255 34.6626 15.6292 37.3665 15.868 40.1877 16.9102 42.7529L13.3155 44.8075C10.5153 46.4072 9.54201 49.9741 11.1417 52.7743 12.7414 55.5746 16.3083 56.5478 19.1086 54.9481L26.647 50.6405C27.8756 50.8536 29.1317 50.8536 30.3603 50.6405L37.8988 54.9481C40.699 56.5478 44.266 55.5746 45.8657 52.7743 47.4654 49.9741 46.4921 46.4072 43.6919 44.8075ZM37.7224 9.31408C39.0781 9.3123 40.1786 10.4098 40.1803 11.7655 40.1812 12.4306 39.9121 13.0677 39.4347 13.5307 38.6875 12.058 37.6178 10.7728 36.3052 9.77072 36.7185 9.47455 37.214 9.31488 37.7224 9.31408ZM17.5727 13.5307C16.599 12.589 16.5731 11.0361 17.5149 10.0625 18.3588 9.18994 19.7139 9.06591 20.7022 9.77072 19.3897 10.7729 18.32 12.0581 17.5727 13.5307ZM22.3579 17.3037C22.3579 16.6248 22.9082 16.0745 23.587 16.0745 24.2659 16.0745 24.8162 16.6248 24.8162 17.3037 24.8162 17.9825 24.2659 18.5328 23.587 18.5328 22.9082 18.5328 22.3579 17.9825 22.3579 17.3037ZM28.5037 25.9078C26.2297 25.9078 24.3823 24.2571 24.3823 22.2203 24.3823 20.1836 26.226 18.5328 28.5037 18.5328 30.7813 18.5328 32.6251 20.1836 32.6251 22.2203 32.6251 24.2571 30.7795 25.9078 28.5037 25.9078ZM33.4204 18.5328C32.7415 18.5328 32.1912 17.9825 32.1912 17.3037 32.1912 16.6248 32.7415 16.0745 33.4204 16.0745 34.0992 16.0745 34.6495 16.6248 34.6495 17.3037 34.6495 17.9825 34.0992 18.5328 33.4204 18.5328Z" fill="#FFFFFF"/><path d="M30.1846 20.9912C30.1846 21.8397 29.432 22.5276 28.5037 22.5276 27.5754 22.5276 26.8228 21.8397 26.8228 20.9912 26.8228 20.1426 27.5754 19.4547 28.5037 19.4547 29.432 19.4547 30.1846 20.1426 30.1846 20.9912Z" fill="#FFFFFF"/></g></g></g><text fill="#0A4B3E" font-family="Segoe UI,Segoe UI_MSFontService,sans-serif" font-weight="400" font-size="16" transform="translate(1019.66 708)">Power BI Developer: Hee Yong Kang</text></g></svg>